<svg id="Page-1" xmlns="http://www.w3.org/2000/svg" width="24" height="24" viewBox="0 0 24 24">
    <g id="Dribbble-Light-Preview">
      <g id="icons">
        <path id="github-_142_" data-name="github-[#142]" d="M96,7399a12.154,12.154,0,0,1,12,12.3,12.281,12.281,0,0,1-8.2,11.674c-.608.121-.824-.263-.824-.591,0-.405.014-1.729.014-3.376a2.982,2.982,0,0,0-.815-2.278c2.672-.3,5.48-1.345,5.48-6.07a4.817,4.817,0,0,0-1.236-3.3,4.515,4.515,0,0,0-.118-3.257s-1.006-.329-3.3,1.262a11.11,11.11,0,0,0-6.01,0c-2.293-1.591-3.3-1.262-3.3-1.262a4.533,4.533,0,0,0-.116,3.257,4.834,4.834,0,0,0-1.236,3.3c0,4.714,2.8,5.77,5.467,6.081a2.644,2.644,0,0,0-.762,1.645,2.519,2.519,0,0,1-3.492-1.022,2.531,2.531,0,0,0-1.84-1.269s-1.17-.016-.082.748a3.237,3.237,0,0,1,1.332,1.8s.7,2.2,4.043,1.452c.006,1.028.017,2,.017,2.29,0,.325-.221.706-.82.592A12.281,12.281,0,0,1,84,7411.3,12.155,12.155,0,0,1,96,7399" transform="translate(-84 -7399.001)" fill="#fff" fill-rule="evenodd"/>
      </g>
    </g>
  </svg>
  