<svg xmlns="http://www.w3.org/2000/svg" width="24" height="24" viewBox="0 0 24 24">
    <g id="instagram-round-svgrepo-com" transform="translate(143 -145)">
      <path id="Path_7" data-name="Path 7" d="M70.2,360.028a2.112,2.112,0,1,0-2.1-2.114A2.118,2.118,0,0,0,70.2,360.028Z" transform="translate(-201.204 -200.919)" fill="#fff"/>
      <path id="Path_8" data-name="Path 8" d="M170.034,304.534V302.5h-.262l-1.772,0,.009,2.034Z" transform="translate(-296.422 -150.117)" fill="#fff"/>
      <path id="Path_9" data-name="Path 9" d="M18.109,375.933a3.281,3.281,0,1,1-6.319-1.233H10v4.912a1.15,1.15,0,0,0,1.148,1.148h7.359a1.15,1.15,0,0,0,1.148-1.148V374.7H17.866A3.178,3.178,0,0,1,18.109,375.933Z" transform="translate(-145.828 -218.933)" fill="#fff"/>
      <path id="Path_10" data-name="Path 10" d="M-131,145a12,12,0,0,0-12,12,12,12,0,0,0,12,12,12,12,0,0,0,12-12A12,12,0,0,0-131,145Zm6,10.767v4.912a2.323,2.323,0,0,1-2.32,2.32h-7.359a2.323,2.323,0,0,1-2.32-2.32v-7.364a2.323,2.323,0,0,1,2.32-2.32h7.359a2.323,2.323,0,0,1,2.32,2.32Z" transform="translate(0 0)" fill="#fff"/>
    </g>
  </svg>
  