<svg id="linkedin-logo-svgrepo-com" xmlns="http://www.w3.org/2000/svg" width="24" height="24" viewBox="0 0 24 24">
    <path id="Path_1" data-name="Path 1" d="M12,0A12,12,0,1,0,24,12,12,12,0,0,0,12,0ZM7.5,20.125H4.13V9.271H7.5ZM5.818,7.787A1.956,1.956,0,1,1,7.773,5.83,1.956,1.956,0,0,1,5.818,7.787ZM20.139,20.125H16.768V14.846c0-1.259-.023-2.878-1.754-2.878-1.755,0-2.024,1.371-2.024,2.787v5.369H9.619V9.271h3.236v1.483H12.9A3.544,3.544,0,0,1,16.092,9c3.416,0,4.046,2.248,4.046,5.17v5.953Z" fill="#fff"/>
  </svg>
  