<?xml version="1.0" encoding="utf-8"?>
<!-- Generator: Adobe Illustrator 27.1.0, SVG Export Plug-In . SVG Version: 6.00 Build 0)  -->
<svg version="1.1" id="Layer_1" xmlns="http://www.w3.org/2000/svg" xmlns:xlink="http://www.w3.org/1999/xlink" x="0px" y="0px"
	 viewBox="0 0 792 576" style="enable-background:new 0 0 792 576;" xml:space="preserve">
<style type="text/css">
	.st0{fill:#FFFFFF;}
	.st1{display:none;}
	.st2{display:inline;}
</style>
<g>
	<path class="st0" d="M114.8,206.6c7,1.3,13.8,2.5,20.3,3.5c6.5,1,12.9,1.8,19.2,2.5c3.6-10.4,6.9-19.5,9.8-27.4
		c2.9-7.9,5.1-13.8,6.6-17.7c3.7-9.7,8.9-13.3,15.6-10.7c3.3,1.3,5.7,3.4,7.4,6.4c1.7,3,3.1,6.9,4.3,11.6c1.6,6.6,3.2,13.3,4.8,20.1
		c1.6,6.8,3.2,13.8,4.7,20.8c5.8,0.1,11.6,0.1,17.5,0c5.8-0.1,11.7-0.3,17.6-0.5l1.2,15.5c-5.5,0.3-10.9,0.5-16.4,0.7
		c-5.5,0.2-10.9,0.3-16.4,0.2c1.5,6.9,2.9,14,4.3,21.1c1.4,7.2,2.7,14.4,3.8,21.7l-14.2,1.3c-1.2-7.7-2.4-15.2-3.7-22.6
		c-1.3-7.4-2.6-14.6-4-21.8c-5.7-0.1-11.5-0.3-17.2-0.6c-5.7-0.3-11.5-0.8-17.1-1.3c-2.7,8-5.3,16-7.9,24c-2.6,8-5.1,15.9-7.6,23.7
		l-13.6-3.2c2.5-7.9,5.1-15.7,7.6-23.5c2.5-7.8,5.1-15.2,7.6-22.4c-5.9-0.6-11.8-1.5-17.6-2.5c-5.9-1-11.8-2.1-17.7-3.2L114.8,206.6
		z M182.5,173.2c-2.5,6.8-4.9,13.6-7.3,20.4c-2.4,6.8-4.8,13.6-7.2,20.3c4.3,0.4,8.7,0.7,12.9,0.9c4.3,0.2,8.5,0.4,12.7,0.5
		c-3.1-14.3-6.5-28.4-10.2-42.2L182.5,173.2z"/>
	<path class="st0" d="M342.1,177.7c-1.6,5.6-3.7,11.9-6.3,19c-2.6,7.1-5.4,14.4-8.6,21.9c-3.1,7.5-6.4,14.8-9.7,21.9
		c-3.3,7.1-6.6,13.4-9.7,19.1c-3.1,5.7-5.9,10.1-8.4,13.4c-1.4,1.9-2.9,3.6-4.6,5.2c-1.7,1.6-3.6,2.4-5.9,2.4
		c-2.9,0-5.2-0.6-6.9-1.8c-1.7-1.2-3.7-2.9-6-5.2c-1.3-1.3-3.2-3.6-5.7-7.1c-2.5-3.4-5.3-7.5-8.2-12.2c-3-4.7-5.8-9.6-8.5-14.7
		c-2.7-5.1-4.9-10.2-6.6-15.1c-1.7-5-2.5-9.4-2.5-13.2c0-2.8,2.1-4.8,6.4-5.9c4.3-1.1,9.8-1.7,16.5-1.7c5.5,0,11.2,0.3,17.2,0.8
		c5.9,0.5,11.6,1.2,17,2.1c5.4,0.9,9.9,1.8,13.5,2.7c2.6-6.4,4.9-12.7,7-18.9c2.1-6.2,3.9-11.8,5.4-17L342.1,177.7z M266.6,217.6
		c-1.5,0.1-2.8,0.3-3.9,0.5l-0.4,0.9c0.6,2.9,2.1,6.9,4.5,12c2.4,5.1,5.3,10.6,8.8,16.5c3.5,5.9,7.3,11.4,11.4,16.5
		c3.4-4.4,7.1-10.4,11-17.9c4-7.5,7.8-15.6,11.6-24.2c-6.5-1.2-13.2-2.2-20.1-3.1c-6.9-0.9-12.9-1.3-18-1.3
		C269.7,217.4,268.1,217.5,266.6,217.6z"/>
	<path class="st0" d="M367.5,290.5c-10.3,0-18.9-1.9-25.9-5.6c-7-3.7-12.3-8.8-15.8-15.3c-3.5-6.5-5.2-13.9-5.2-22.1
		c0-8.3,2.2-15.7,6.6-22.2c4.4-6.5,10.5-11.7,18.5-15.6c7.9-3.9,17.3-5.8,28-5.8c8.6,0,15.9,1.3,21.9,4c5.9,2.7,10.8,6.2,14.5,10.5
		c3.7,4.3,6.4,9,8.1,13.9c1.7,5,2.5,9.7,2.5,14.1c0,5-0.9,10.1-2.8,15.3c-1.9,5.2-4.9,10-9,14.4c-4.1,4.4-9.6,7.9-16.4,10.5
		C385.8,289.2,377.4,290.5,367.5,290.5z M368.7,276.5c8.6,0,15.5-1.4,20.7-4.3c5.2-2.9,9-6.6,11.3-11.2c2.3-4.6,3.5-9.5,3.5-14.6
		c0-4.6-1.2-9-3.6-13.4c-2.4-4.4-5.9-8-10.6-10.9c-4.7-2.9-10.3-4.4-17-4.4c-8.1,0-14.7,1.3-20,4c-5.3,2.7-9.3,6.2-11.9,10.7
		c-2.6,4.4-3.9,9.2-3.9,14.4c0,8.5,2.5,15.6,7.6,21.3C349.9,273.7,357.9,276.5,368.7,276.5z"/>
	<path class="st0" d="M533.3,278l-14.1,2.6c-0.2-5-0.9-10.3-1.9-15.7c-1.1-5.4-2.2-10.8-3.5-16c-0.8-3-1.9-6.3-3.2-9.9
		c-1.3-3.6-3.1-6.8-5.2-9.6c-2.1-2.9-4.7-4.8-7.7-5.6c-2.1-0.6-4.6-1.1-7.4-1.5c-2.8-0.4-6-0.8-9.5-1.1c-2.7,12.5-5.4,23.7-8.1,33.7
		c-2.7,10-4.8,17.6-6.4,23c-1,3.2-2.4,5-4.5,5.3c-2,0.3-3.8,0.3-5.2-0.2c-1.9-0.6-3.6-1.7-5.2-3.4c-1.6-1.7-3-3.6-4.3-5.8
		c-4.5-7.8-9-15.4-13.4-22.8c-4.4-7.4-8.3-14.7-11.6-21.9c-1.3-2.7-2.3-5.1-3.1-7.3c-0.8-2.2-0.8-4.8,0.1-7.8c1-3.2,2.3-5.4,4.1-6.4
		c1.8-1,3.8-1.6,5.9-1.8c2.9-0.2,6.6-0.5,11.2-0.6c4.6-0.2,9.6-0.2,15.1-0.2c5.5,0,11,0.1,16.5,0.2c5.5,0.1,10.6,0.3,15.2,0.6
		c1.9,0.1,4.4,0.3,7.6,0.7c3.1,0.4,6.1,1,8.9,1.8c3.4,1,6.3,2.8,8.9,5.5c2.6,2.7,4.8,5.8,6.7,9.4c1.9,3.6,3.6,7.1,4.9,10.7
		c1.3,3.6,2.4,6.9,3.2,9.8c1.5,5.3,2.7,10.7,3.7,16.3C531.9,265.4,532.7,271.5,533.3,278z M456.5,261.9l1.2-4
		c1.6-5.4,3.2-11.4,4.8-18c1.6-6.6,3.2-13.1,4.5-19.4c-5.6-0.1-11.1-0.1-16.6,0c-5.5,0-10.9,0.2-16.4,0.4c1.7,4.9,3.9,10,6.6,15.2
		c2.6,5.3,5.3,10.2,8,14.7c2.7,4.5,5,8.3,7.1,11.3L456.5,261.9z"/>
	<path class="st0" d="M558,279c-0.2-4.2-0.5-8.8-0.7-13.8c-0.2-5-0.4-9.8-0.4-14.4c0-2.5,0-5,0.1-7.6c0.1-2.6,0.1-5.3,0.3-8
		c-10.3-1.6-18.7-5.9-25.2-12.7c-6.5-6.8-9.8-16.1-9.8-27.7c0-6.5,1.5-12.4,4.4-17.6c2.9-5.2,6.9-9.7,11.9-13.5
		c5-3.8,10.6-6.7,16.8-8.7c6.2-2,12.5-3,18.9-3c8.5,0,16.2,1.8,23,5.3c6.8,3.5,12.3,8.4,16.3,14.6c4,6.2,6,13.6,6,22
		c0,8.3-2,15.4-5.9,21.4c-3.9,6-9.3,10.7-16.3,14.1c-6.9,3.4-15,5.4-24.1,6.1c-0.1,2.4-0.2,4.8-0.3,7.2c-0.1,2.3-0.1,4.7-0.1,7
		c0,4.6,0.1,9.4,0.3,14.7s0.5,10.1,0.7,14.5H558z M558.3,221.2c0.9-9.9,2.1-19.7,3.6-29.3c1.5-9.6,2.9-18.1,4.5-25.3
		c-4.9,0.8-9.5,2.5-13.7,5.1c-4.3,2.6-7.7,5.9-10.4,10.1c-2.7,4.1-4,9-4,14.6c0,7.2,1.8,12.9,5.5,16.9
		C547.4,217.3,552.3,220,558.3,221.2z M574.3,221.6c5-0.6,9.7-1.9,14.2-3.9c4.4-2,8-4.9,10.9-8.7c2.8-3.7,4.2-8.4,4.2-14
		c0-7.4-2-13.5-6-18.4c-4-4.9-9.1-8.1-15.4-9.6c-1.3,6.8-2.7,15-4.2,24.8C576.4,201.5,575.2,211.4,574.3,221.6z"/>
	<path class="st0" d="M121.2,320.5l2.3-15.4c6.1,1.1,13,2,20.9,2.7c7.9,0.6,429.5-16.1,438.3-16.3c8.9-0.1,17.7-0.8,26.6-2
		c8.8-1.2,39-3.2,46.8-5.9l-39.2-25.8c-2-0.9-3.8-2.2-5.4-3.7c-1.5-1.5-2.7-3-3.3-4.3c-1.1-2.3-1.3-4.4-0.5-6.3
		c0.8-1.9,1.8-3.5,2.9-4.7l52-33.1l12.2,9.2l-49.1,31.1l39.1,25.2c1.4,0.9,2.8,1.7,4.3,2.4c1.2,0.6,2.3,1.2,3.3,1.9
		c1.7,1.1,4,3.5,4.8,5.3c1.3,2.7,1.6,5.3,0.8,7.9c-0.8,2.7-2.2,4.5-4.4,5.6c-7,3.5-37.2,6.3-46.8,8.4c-9.7,2.1-19.9,3.5-30.8,4.2
		c-10.9,0.7-434.8,17.8-445.4,17.2C139.9,323.5,130.1,322.3,121.2,320.5z"/>
	<g>
		<path class="st0" d="M315.9,372.7c-0.6,4-1.3,7.5-2.4,10c-3.2,7.2-12.4,12.2-21.1,12.2c-12.2,0-18.3-8.3-18.3-19.3
			c0-6.8,2.1-13.1,5-17.6l2.2,1.1c-1.8,4.1-3,8-3,11.7c0,10.3,7.1,15.2,15.3,15.2c9.7,0,18.7-7.5,18.7-13.3c0-4-2.5-10.6-6.5-16.6
			c1.2-2.2,2.4-4.1,4.1-6.7h0.3c2.3,4.5,3.9,8.4,5.2,12c0.9,2.1,1.8,3.1,4,3.1c1.9,0,3.7-0.9,4.8-1.8c1.2-0.8,2.8-2.4,3.6-5l1.6-4.6
			l4.3-1.9l0.3,0.3c-1.4,4.3-1.9,7.2-1.9,9.2c0,2.6,1.9,3.8,4.3,3.8c4.8,0,6.8-4.5,7.7-8.4l1.1-4.4l4.6-2.7l0.3,0.3
			c-0.8,2.9-1.5,6.3-1.5,8.6c0,5,60.3,4.7,66.2,4.7h1.4v8h-1.6c-7.8,0-67.4-0.6-68.9-4.1h-0.4c-3.5,4.1-7.3,5.9-11,5.9
			c-2.7,0-5.7-0.8-6.7-5.2h-0.4c-2.1,3.2-5.3,5.2-10,5.2H315.9z"/>
		<path class="st0" d="M417.5,362.9c4.8,0,9.9-1.9,10.8-5.5l1.8-6.8l4.3-3.1l0.4,0.4c-0.9,3.2-1.4,5.9-1.4,7.3c0,2.2,0.6,4,2.1,5.2
			c2,1.6,86.6,2.5,90,2.5h1.1v8h-1.4c-6.2,0-93-1.7-95.1-6.4h-0.3c-2.1,4.2-7.1,6.4-12.5,6.4h-1.2c-3.5,0-4.4-2.5-4.4-4.2
			c0-1.5,1-3.8,4.4-3.8H417.5z M424.6,396c-2.6-2.4-30.7-5-33.3-7.1c1.6-2.3,29.3-3.8,30.9-5.4c2.6,2,4.7,4.1,7.2,6.7
			C427.6,392.7,426.4,394.4,424.6,396z M436.7,395.2c-2.6-2.4-4.8-4.5-7.3-6.5c1.6-2.3,3.4-4.3,5-6c2.6,2,13.5,3.6,16,6.2
			C448.6,391.4,438.5,393.6,436.7,395.2z"/>
		<path class="st0" d="M527.7,362.9c5.3,0,9.6-0.2,12.4-1.2c2.2-0.8,3.6-1.7,3.6-2.8c0-3-3-9.1-6.3-15.5c1.5-2.7,3.1-5.1,4.7-7.1
			h0.3c2.9,5.1,6.3,12.9,6.3,19.2c0,4.7-1.9,8.4-4.4,11.7c-2.8,2.8-7.3,3.8-16.9,3.8h-0.8c-3.5,0-4.4-2.5-4.4-4.2
			c0-1.5,1-3.8,4.4-3.8H527.7z M536.4,316.2c2.6,1.9,5.1,4.1,7.5,6.7c-1.4,2.3-3.1,4.3-5.2,6.2c-2.4-2.3-4.9-4.3-7.4-6.5
			C533.1,320.3,534.8,318.1,536.4,316.2z"/>
		<path class="st0" d="M575.1,364.3c-7.3,0-13.7-3.5-13.7-11.8c0-4.1,1.6-7.7,4-10.8c2.9-3.1,6-5.2,9-5.2c3.6,0,7,2.6,9.5,7.1
			c2.4,4.3,4,10.3,4,17.3c0,5.8-1.4,11.4-4.8,16.5c-5.6,8.5-10.9,11.9-16.1,11.9c-5.8,0-11.7-1.9-18-6.2l0.9-2
			c3.1,1.6,6.1,2.1,9.2,2.1c6.3,0,12.7-3.2,18.5-9.6c2.8-3.1,5.5-6.8,5.9-10.5C580.8,364,578,364.3,575.1,364.3z M572.4,344.4
			c-3,0-7,3.3-7,5.6c0,3.9,5.5,6.7,10.7,6.7c2.4,0,4.8-0.3,7.1-0.8C581.4,349.5,577.8,344.4,572.4,344.4z"/>
		<path class="st0" d="M601.5,353.9c0.2,5.4,2.4,9.7,10.3,9.7c4.9,0,9-1.5,13.6-4.1c0.8-0.4,1.3-1,1.3-1.5c0-3.4-2.2-7.9-5.9-11.9
			c-3.6-3.8-8.4-7.2-12.8-9.5c-1.5-0.8-2-1.6-2-2.3c0-1.6,1.8-4.8,3.2-7.2l0.5-0.1c5.1,3.1,10.8,7.8,15,13c3.8,4.8,6.2,9.6,6.2,14.9
			c0,3.9-1,7.6-2.6,11c-5.6,3.3-11.6,5.8-17.5,5.8c-7.2,0-12.1-4-12.1-13.3c0-1,0-2.6,0.3-4.6H601.5z"/>
		<path class="st0" d="M643,372c0.6-4,0.7-8.4,0.7-12.6v-6.2c0-11.5-1.3-28.2-2.3-39.1c1.8-2.3,4.2-4.9,6.2-6.7l0.6,0.2
			c1.3,13.7,1.6,29.6,1.6,44.2c0,3.8-0.1,7.6-0.4,10.4c-0.2,3.5-1.9,6.1-5.5,10.1L643,372z"/>
	</g>
</g>
<g class="st1">
	<g class="st2">
		<path d="M650.4,242.4l-1.7,3.5c-4,0.5-217.4,16.4-221.7,18.9l-0.4-0.4l1.6-2.6c0.6-0.6,210.2-16.1,211-16.4v-0.2
			c-2.2-0.8-8.9-14.1-8.9-16.2c0-2,12.3-14.8,13.4-15.8c1.7-1.6,4.2-2.6,6-2.6s3.4,1.1,3.4,2.7c0,1.1-0.4,2.1-1.6,3.3h-0.2
			c-0.2-0.7-0.7-1.5-1-2c-0.5-0.6-1-0.8-1.9-0.8c-1.1,0-2.4,0.5-3,1c-0.6,0.4-0.7,0.9-1,1.2c-1.4,1.9-9.8,12.2-9.7,13.2
			c0.2,1.7,7.8,13.4,9.5,13.4c2,0,4.3-0.3,5.9-0.6L650.4,242.4z"/>
	</g>
	<path class="st2" d="M426.6,218.3c2.9,0.5,5.7,1,8.4,1.4c2.7,0.4,5.3,0.8,7.9,1c1.5-4.3,2.8-8,4-11.3c1.2-3.2,2.1-5.7,2.7-7.3
		c1.5-4,3.7-5.5,6.4-4.4c1.3,0.5,2.4,1.4,3,2.6c0.7,1.2,1.3,2.8,1.8,4.8c0.7,2.7,1.3,5.5,2,8.3c0.7,2.8,1.3,5.7,1.9,8.6
		c2.4,0,4.8,0,7.2,0c2.4-0.1,4.8-0.1,7.3-0.2l0.5,6.4c-2.3,0.1-4.5,0.2-6.7,0.3c-2.2,0.1-4.5,0.1-6.7,0.1c0.6,2.9,1.2,5.8,1.7,8.7
		c0.6,2.9,1.1,5.9,1.6,8.9l-5.8,0.5c-0.5-3.2-1-6.3-1.5-9.3c-0.5-3-1.1-6-1.6-9c-2.4,0-4.7-0.1-7.1-0.3c-2.4-0.1-4.7-0.3-7-0.5
		c-1.1,3.3-2.2,6.6-3.2,9.9c-1.1,3.3-2.1,6.5-3.1,9.8l-5.6-1.3c1-3.3,2.1-6.5,3.1-9.7c1-3.2,2.1-6.3,3.1-9.2c-2.4-0.3-4.8-0.6-7.2-1
		c-2.4-0.4-4.8-0.9-7.3-1.3L426.6,218.3z M454.5,204.5c-1,2.8-2,5.6-3,8.4c-1,2.8-2,5.6-3,8.3c1.8,0.2,3.6,0.3,5.3,0.4
		c1.8,0.1,3.5,0.2,5.2,0.2c-1.3-5.9-2.7-11.7-4.2-17.4L454.5,204.5z"/>
	<path class="st2" d="M520.2,206.4c-0.7,2.3-1.5,4.9-2.6,7.8c-1.1,2.9-2.2,5.9-3.5,9c-1.3,3.1-2.6,6.1-4,9c-1.4,2.9-2.7,5.5-4,7.8
		c-1.3,2.3-2.4,4.2-3.5,5.5c-0.6,0.8-1.2,1.5-1.9,2.1c-0.7,0.6-1.5,1-2.4,1c-1.2,0-2.1-0.2-2.8-0.7c-0.7-0.5-1.5-1.2-2.5-2.2
		c-0.5-0.5-1.3-1.5-2.3-2.9c-1-1.4-2.2-3.1-3.4-5c-1.2-1.9-2.4-3.9-3.5-6c-1.1-2.1-2-4.2-2.7-6.2c-0.7-2-1-3.9-1-5.4
		c0-1.2,0.9-2,2.6-2.4c1.8-0.5,4-0.7,6.8-0.7c2.3,0,4.6,0.1,7.1,0.3c2.4,0.2,4.8,0.5,7,0.9c2.2,0.4,4.1,0.7,5.5,1.1
		c1.1-2.6,2-5.2,2.9-7.8c0.9-2.5,1.6-4.9,2.2-7L520.2,206.4z M489.1,222.8c-0.6,0-1.1,0.1-1.6,0.2l-0.1,0.4c0.2,1.2,0.9,2.8,1.8,4.9
		c1,2.1,2.2,4.3,3.6,6.8c1.4,2.4,3,4.7,4.7,6.8c1.4-1.8,2.9-4.3,4.5-7.4c1.6-3.1,3.2-6.4,4.8-10c-2.7-0.5-5.4-0.9-8.3-1.3
		c-2.8-0.4-5.3-0.5-7.4-0.5C490.4,222.7,489.7,222.7,489.1,222.8z"/>
	<path class="st2" d="M530.6,252.8c-4.2,0-7.8-0.8-10.7-2.3c-2.9-1.5-5-3.6-6.5-6.3s-2.2-5.7-2.2-9.1c0-3.4,0.9-6.5,2.7-9.1
		c1.8-2.7,4.3-4.8,7.6-6.4c3.3-1.6,7.1-2.4,11.5-2.4c3.6,0,6.6,0.6,9,1.7c2.4,1.1,4.4,2.5,6,4.3c1.5,1.8,2.7,3.7,3.3,5.7
		c0.7,2,1,4,1,5.8c0,2.1-0.4,4.2-1.2,6.3c-0.8,2.1-2,4.1-3.7,5.9c-1.7,1.8-3.9,3.2-6.7,4.3C538.1,252.2,534.7,252.8,530.6,252.8z
		 M531.1,247c3.6,0,6.4-0.6,8.5-1.8c2.1-1.2,3.7-2.7,4.6-4.6c1-1.9,1.4-3.9,1.4-6c0-1.9-0.5-3.7-1.5-5.5c-1-1.8-2.4-3.3-4.4-4.5
		c-1.9-1.2-4.2-1.8-7-1.8c-3.3,0-6.1,0.6-8.2,1.7c-2.2,1.1-3.8,2.6-4.9,4.4c-1.1,1.8-1.6,3.8-1.6,5.9c0,3.5,1,6.4,3.1,8.7
		C523.4,245.9,526.7,247,531.1,247z"/>
	<path class="st2" d="M597.9,249.1l-5.8,0.7c0-2.1-0.1-4.2-0.4-6.5c-0.3-2.3-0.6-4.5-1-6.7c-0.3-1.3-0.6-2.6-1.1-4.1
		c-0.5-1.5-1.1-2.9-1.9-4.1c-0.8-1.2-1.8-2.1-3-2.5c-0.9-0.3-1.9-0.6-3-0.8c-1.1-0.2-2.4-0.5-3.9-0.7c-1.4,5-2.8,9.6-4.2,13.6
		c-1.4,4-2.4,7.1-3.2,9.3c-0.5,1.3-1.1,2-2,2.1c-0.8,0.1-1.6,0-2.1-0.2c-0.8-0.3-1.5-0.8-2.1-1.5c-0.6-0.7-1.1-1.6-1.6-2.5
		c-1.7-3.3-3.3-6.5-4.9-9.7c-1.6-3.2-3-6.3-4.2-9.3c-0.5-1.1-0.8-2.2-1.1-3.1c-0.3-0.9-0.2-2,0.2-3.2c0.5-1.3,1.1-2.1,1.9-2.5
		c0.8-0.4,1.6-0.6,2.5-0.6c1.2,0,2.7,0,4.6,0c1.9,0.1,4,0.2,6.2,0.3c2.2,0.2,4.5,0.3,6.8,0.5c2.3,0.2,4.3,0.4,6.2,0.6
		c0.8,0.1,1.8,0.2,3.1,0.5c1.3,0.2,2.5,0.6,3.6,1c1.4,0.5,2.5,1.3,3.5,2.5c1,1.2,1.8,2.5,2.5,4c0.7,1.5,1.3,3,1.7,4.5
		c0.4,1.5,0.8,2.9,1.1,4.1c0.5,2.2,0.8,4.5,1.1,6.8C597.7,243.9,597.8,246.4,597.9,249.1z M566.8,240.5l0.6-1.6
		c0.8-2.2,1.6-4.6,2.4-7.3c0.8-2.7,1.6-5.3,2.3-7.8c-2.3-0.2-4.6-0.3-6.8-0.4c-2.3-0.1-4.5-0.2-6.7-0.3c0.6,2.1,1.4,4.2,2.3,6.4
		c1,2.2,1.9,4.3,2.9,6.2c1,1.9,1.9,3.5,2.6,4.8L566.8,240.5z"/>
	<path class="st2" d="M609,248.1c-0.1-1.7-0.2-3.6-0.3-5.7c-0.1-2.1-0.1-4-0.1-5.9c0-1,0-2.1,0-3.1c0-1.1,0.1-2.2,0.1-3.3
		c-4.2-0.7-7.7-2.4-10.4-5.2c-2.7-2.8-4-6.6-4-11.4c0-2.7,0.6-5.1,1.8-7.2c1.2-2.1,2.8-4,4.9-5.5c2.1-1.6,4.4-2.7,6.9-3.6
		c2.5-0.8,5.1-1.2,7.8-1.2c3.5,0,6.7,0.7,9.5,2.2c2.8,1.4,5,3.4,6.7,6c1.7,2.6,2.5,5.6,2.5,9c0,3.4-0.8,6.3-2.4,8.8
		c-1.6,2.5-3.8,4.4-6.7,5.8c-2.9,1.4-6.2,2.2-9.9,2.5c0,1-0.1,2-0.1,3c0,1,0,1.9,0,2.9c0,1.9,0,3.9,0.1,6s0.2,4.2,0.3,6H609z
		 M609.1,224.3c0.4-4.1,0.9-8.1,1.5-12.1c0.6-4,1.2-7.4,1.8-10.4c-2,0.3-3.9,1-5.7,2.1c-1.8,1.1-3.2,2.4-4.3,4.1
		c-1.1,1.7-1.7,3.7-1.7,6c0,3,0.8,5.3,2.3,6.9C604.6,222.7,606.6,223.8,609.1,224.3z M615.7,224.4c2.1-0.2,4-0.8,5.8-1.6
		c1.8-0.8,3.3-2,4.5-3.6c1.2-1.5,1.7-3.5,1.7-5.8c0-3-0.8-5.5-2.4-7.6s-3.7-3.3-6.3-4c-0.5,2.8-1.1,6.2-1.7,10.2
		C616.6,216.2,616.1,220.3,615.7,224.4z"/>
	<g class="st2">
		<path d="M462.7,298c-0.4,2.2-0.7,4.2-1.3,5.6c-1.8,4-6.9,6.9-11.8,6.9c-6.8,0-10.2-4.6-10.2-10.8c0-3.8,1.2-7.3,2.8-9.8l1.2,0.6
			c-1,2.3-1.7,4.5-1.7,6.6c0,5.8,4,8.5,8.6,8.5c5.4,0,10.4-4.2,10.4-7.5c0-2.2-1.4-5.9-3.6-9.3c0.7-1.2,1.3-2.3,2.3-3.8h0.1
			c1.3,2.5,2.2,4.7,2.9,6.7c0.5,1.2,1,1.8,2.2,1.8c1.1,0,2.1-0.5,2.7-1c0.7-0.5,1.5-1.4,2-2.8l0.9-2.6l2.4-1.1l0.1,0.2
			c-0.8,2.4-1.1,4-1.1,5.1c0,1.5,1.1,2.1,2.4,2.1c2.7,0,3.8-2.5,4.3-4.7l0.6-2.5l2.6-1.5l0.1,0.2c-0.4,1.6-0.8,3.5-0.8,4.8
			c0,2.8,33.7,2.7,37.1,2.7h0.8v4.5H518c-4.4,0-37.7-0.3-38.6-2.3h-0.2c-2,2.3-4.1,3.3-6.2,3.3c-1.5,0-3.2-0.5-3.8-2.9H469
			c-1.2,1.8-3,2.9-5.6,2.9H462.7z"/>
		<path d="M519.6,292.5c2.7,0,5.5-1.1,6-3.1l1-3.8l2.4-1.8l0.2,0.2c-0.5,1.8-0.8,3.3-0.8,4.1c0,1.2,0.3,2.2,1.2,2.9
			c1.1,0.9,48.5,1.4,50.4,1.4h0.6v4.5h-0.8c-3.4,0-52-0.9-53.2-3.6h-0.1c-1.2,2.4-4,3.6-7,3.6h-0.7c-1.9,0-2.5-1.4-2.5-2.4
			c0-0.8,0.6-2.1,2.5-2.1H519.6z M523.6,311c-1.4-1.4-17.2-2.8-18.6-4c0.9-1.3,16.4-2.1,17.3-3c1.4,1.1,2.6,2.3,4,3.8
			C525.3,309.2,524.6,310.1,523.6,311z M530.4,310.6c-1.4-1.4-2.7-2.5-4.1-3.7c0.9-1.3,1.9-2.4,2.8-3.3c1.4,1.1,7.6,2,8.9,3.5
			C537,308.5,531.3,309.7,530.4,310.6z"/>
		<path d="M581.3,292.5c3,0,5.4-0.1,6.9-0.7c1.2-0.5,2-0.9,2-1.5c0-1.7-1.7-5.1-3.5-8.7c0.8-1.5,1.7-2.8,2.6-4h0.2
			c1.6,2.8,3.5,7.2,3.5,10.7c0,2.6-1.1,4.7-2.5,6.5c-1.6,1.6-4.1,2.1-9.5,2.1h-0.4c-1.9,0-2.5-1.4-2.5-2.4c0-0.8,0.6-2.1,2.5-2.1
			H581.3z M586.2,266.3c1.4,1.1,2.8,2.3,4.2,3.8c-0.8,1.3-1.7,2.4-2.9,3.4c-1.4-1.3-2.7-2.4-4.1-3.6
			C584.3,268.7,585.2,267.4,586.2,266.3z"/>
		<path d="M607.8,293.3c-4.1,0-7.7-1.9-7.7-6.6c0-2.3,0.9-4.3,2.2-6c1.6-1.8,3.4-2.9,5-2.9c2,0,3.9,1.4,5.3,4
			c1.3,2.4,2.2,5.8,2.2,9.7c0,3.3-0.8,6.4-2.7,9.2c-3.1,4.7-6.1,6.7-9,6.7c-3.2,0-6.6-1.1-10.1-3.4l0.5-1.1c1.7,0.9,3.4,1.2,5.1,1.2
			c3.6,0,7.1-1.8,10.3-5.4c1.6-1.7,3.1-3.8,3.3-5.9C611,293.1,609.4,293.3,607.8,293.3z M606.3,282.2c-1.7,0-3.9,1.8-3.9,3.1
			c0,2.2,3.1,3.7,6,3.7c1.3,0,2.7-0.1,4-0.5C611.3,285,609.3,282.2,606.3,282.2z"/>
		<path d="M622.6,287.4c0.1,3,1.4,5.4,5.8,5.4c2.7,0,5.1-0.8,7.6-2.3c0.5-0.2,0.7-0.6,0.7-0.8c0-1.9-1.2-4.4-3.3-6.7
			c-2-2.1-4.7-4-7.2-5.3c-0.8-0.4-1.1-0.9-1.1-1.3c0-0.9,1-2.7,1.8-4l0.3,0c2.8,1.8,6,4.4,8.4,7.3c2.1,2.7,3.5,5.4,3.5,8.3
			c0,2.2-0.6,4.3-1.5,6.2c-3.1,1.9-6.5,3.3-9.8,3.3c-4,0-6.8-2.2-6.8-7.4c0-0.6,0-1.4,0.2-2.6H622.6z"/>
		<path d="M645.8,297.6c0.4-2.2,0.4-4.7,0.4-7v-3.4c0-6.4-0.7-15.8-1.3-21.9c1-1.3,2.4-2.7,3.4-3.7l0.3,0.1
			c0.7,7.7,0.9,16.6,0.9,24.8c0,2.1-0.1,4.3-0.2,5.8c-0.1,1.9-1.1,3.4-3.1,5.7L645.8,297.6z"/>
	</g>
</g>
</svg>
