<?xml version="1.0" encoding="UTF-8"?><svg id="Layer_1" xmlns="http://www.w3.org/2000/svg" viewBox="0 0 564.74 244"><defs><style>.cls-1{fill:#2b4975;}</style></defs><path class="cls-1" d="m1.1,54.6c7,1.3,13.8,2.5,20.3,3.5s12.9,1.8,19.2,2.5c3.6-10.4,6.9-19.5,9.8-27.4,2.9-7.9,5.1-13.8,6.6-17.7,3.7-9.7,8.9-13.3,15.6-10.7,3.3,1.3,5.7,3.4,7.4,6.4s3.1,6.9,4.3,11.6c1.6,6.6,3.2,13.3,4.8,20.1s3.2,13.8,4.7,20.8c5.8.1,11.6.1,17.5,0,5.8-.1,11.7-.3,17.6-.5l1.2,15.5c-5.5.3-10.9.5-16.4.7s-10.9.3-16.4.2c1.5,6.9,2.9,14,4.3,21.1,1.4,7.2,2.7,14.4,3.8,21.7l-14.2,1.3c-1.2-7.7-2.4-15.2-3.7-22.6s-2.6-14.6-4-21.8c-5.7-.1-11.5-.3-17.2-.6s-11.5-.8-17.1-1.3c-2.7,8-5.3,16-7.9,24-2.6,8-5.1,15.9-7.6,23.7l-13.6-3.2c2.5-7.9,5.1-15.7,7.6-23.5,2.5-7.8,5.1-15.2,7.6-22.4-5.9-.6-11.8-1.5-17.6-2.5-5.9-1-11.8-2.1-17.7-3.2l1.1-15.7ZM68.8,21.2c-2.5,6.8-4.9,13.6-7.3,20.4-2.4,6.8-4.8,13.6-7.2,20.3,4.3.4,8.7.7,12.9.9,4.3.2,8.5.4,12.7.5-3.1-14.3-6.5-28.4-10.2-42.2l-.9.1Z"/><path class="cls-1" d="m228.4,25.7c-1.6,5.6-3.7,11.9-6.3,19-2.6,7.1-5.4,14.4-8.6,21.9-3.1,7.5-6.4,14.8-9.7,21.9-3.3,7.1-6.6,13.4-9.7,19.1-3.1,5.7-5.9,10.1-8.4,13.4-1.4,1.9-2.9,3.6-4.6,5.2s-3.6,2.4-5.9,2.4c-2.9,0-5.2-.6-6.9-1.8-1.7-1.2-3.7-2.9-6-5.2-1.3-1.3-3.2-3.6-5.7-7.1-2.5-3.4-5.3-7.5-8.2-12.2-3-4.7-5.8-9.6-8.5-14.7-2.7-5.1-4.9-10.2-6.6-15.1-1.7-5-2.5-9.4-2.5-13.2,0-2.8,2.1-4.8,6.4-5.9,4.3-1.1,9.8-1.7,16.5-1.7,5.5,0,11.2.3,17.2.8,5.9.5,11.6,1.2,17,2.1,5.4.9,9.9,1.8,13.5,2.7,2.6-6.4,4.9-12.7,7-18.9s3.9-11.8,5.4-17l14.6,4.3Zm-75.5,39.9c-1.5.1-2.8.3-3.9.5l-.4.9c.6,2.9,2.1,6.9,4.5,12s5.3,10.6,8.8,16.5,7.3,11.4,11.4,16.5c3.4-4.4,7.1-10.4,11-17.9,4-7.5,7.8-15.6,11.6-24.2-6.5-1.2-13.2-2.2-20.1-3.1-6.9-.9-12.9-1.3-18-1.3-1.8-.1-3.4,0-4.9.1Z"/><path class="cls-1" d="m253.8,138.5c-10.3,0-18.9-1.9-25.9-5.6s-12.3-8.8-15.8-15.3-5.2-13.9-5.2-22.1,2.2-15.7,6.6-22.2,10.5-11.7,18.5-15.6c7.9-3.9,17.3-5.8,28-5.8,8.6,0,15.9,1.3,21.9,4,5.9,2.7,10.8,6.2,14.5,10.5s6.4,9,8.1,13.9c1.7,5,2.5,9.7,2.5,14.1,0,5-.9,10.1-2.8,15.3-1.9,5.2-4.9,10-9,14.4s-9.6,7.9-16.4,10.5c-6.7,2.6-15.1,3.9-25,3.9Zm1.2-14c8.6,0,15.5-1.4,20.7-4.3s9-6.6,11.3-11.2,3.5-9.5,3.5-14.6c0-4.6-1.2-9-3.6-13.4s-5.9-8-10.6-10.9-10.3-4.4-17-4.4c-8.1,0-14.7,1.3-20,4s-9.3,6.2-11.9,10.7c-2.6,4.4-3.9,9.2-3.9,14.4,0,8.5,2.5,15.6,7.6,21.3,5.1,5.6,13.1,8.4,23.9,8.4Z"/><path class="cls-1" d="m419.6,126l-14.1,2.6c-.2-5-.9-10.3-1.9-15.7-1.1-5.4-2.2-10.8-3.5-16-.8-3-1.9-6.3-3.2-9.9-1.3-3.6-3.1-6.8-5.2-9.6-2.1-2.9-4.7-4.8-7.7-5.6-2.1-.6-4.6-1.1-7.4-1.5s-6-.8-9.5-1.1c-2.7,12.5-5.4,23.7-8.1,33.7-2.7,10-4.8,17.6-6.4,23-1,3.2-2.4,5-4.5,5.3-2,.3-3.8.3-5.2-.2-1.9-.6-3.6-1.7-5.2-3.4-1.6-1.7-3-3.6-4.3-5.8-4.5-7.8-9-15.4-13.4-22.8-4.4-7.4-8.3-14.7-11.6-21.9-1.3-2.7-2.3-5.1-3.1-7.3-.8-2.2-.8-4.8.1-7.8,1-3.2,2.3-5.4,4.1-6.4,1.8-1,3.8-1.6,5.9-1.8,2.9-.2,6.6-.5,11.2-.6,4.6-.2,9.6-.2,15.1-.2s11,.1,16.5.2c5.5.1,10.6.3,15.2.6,1.9.1,4.4.3,7.6.7,3.1.4,6.1,1,8.9,1.8,3.4,1,6.3,2.8,8.9,5.5,2.6,2.7,4.8,5.8,6.7,9.4,1.9,3.6,3.6,7.1,4.9,10.7,1.3,3.6,2.4,6.9,3.2,9.8,1.5,5.3,2.7,10.7,3.7,16.3.9,5.4,1.7,11.5,2.3,18Zm-76.8-16.1l1.2-4c1.6-5.4,3.2-11.4,4.8-18,1.6-6.6,3.2-13.1,4.5-19.4-5.6-.1-11.1-.1-16.6,0-5.5,0-10.9.2-16.4.4,1.7,4.9,3.9,10,6.6,15.2,2.6,5.3,5.3,10.2,8,14.7s5,8.3,7.1,11.3l.8-.2Z"/><path class="cls-1" d="m444.3,127c-.2-4.2-.5-8.8-.7-13.8s-.4-9.8-.4-14.4c0-2.5,0-5,.1-7.6s.1-5.3.3-8c-10.3-1.6-18.7-5.9-25.2-12.7s-9.8-16.1-9.8-27.7c0-6.5,1.5-12.4,4.4-17.6,2.9-5.2,6.9-9.7,11.9-13.5s10.6-6.7,16.8-8.7,12.5-3,18.9-3c8.5,0,16.2,1.8,23,5.3s12.3,8.4,16.3,14.6c4,6.2,6,13.6,6,22s-2,15.4-5.9,21.4-9.3,10.7-16.3,14.1c-6.9,3.4-15,5.4-24.1,6.1-.1,2.4-.2,4.8-.3,7.2-.1,2.3-.1,4.7-.1,7,0,4.6.1,9.4.3,14.7s.5,10.1.7,14.5h-15.9v.1Zm.3-57.8c.9-9.9,2.1-19.7,3.6-29.3s2.9-18.1,4.5-25.3c-4.9.8-9.5,2.5-13.7,5.1-4.3,2.6-7.7,5.9-10.4,10.1-2.7,4.1-4,9-4,14.6,0,7.2,1.8,12.9,5.5,16.9,3.6,4,8.5,6.7,14.5,7.9Zm16,.4c5-.6,9.7-1.9,14.2-3.9,4.4-2,8-4.9,10.9-8.7,2.8-3.7,4.2-8.4,4.2-14,0-7.4-2-13.5-6-18.4s-9.1-8.1-15.4-9.6c-1.3,6.8-2.7,15-4.2,24.8-1.6,9.7-2.8,19.6-3.7,29.8Z"/><path class="cls-1" d="m7.5,168.5l2.3-15.4c6.1,1.1,13,2,20.9,2.7,7.9.6,429.5-16.1,438.3-16.3,8.9-.1,17.7-.8,26.6-2,8.8-1.2,39-3.2,46.8-5.9l-39.2-25.8c-2-.9-3.8-2.2-5.4-3.7-1.5-1.5-2.7-3-3.3-4.3-1.1-2.3-1.3-4.4-.5-6.3.8-1.9,1.8-3.5,2.9-4.7l52-33.1,12.2,9.2-49.1,31.1,39.1,25.2c1.4.9,2.8,1.7,4.3,2.4,1.2.6,2.3,1.2,3.3,1.9,1.7,1.1,4,3.5,4.8,5.3,1.3,2.7,1.6,5.3.8,7.9-.8,2.7-2.2,4.5-4.4,5.6-7,3.5-37.2,6.3-46.8,8.4-9.7,2.1-19.9,3.5-30.8,4.2-10.9.7-434.8,17.8-445.4,17.2-10.7-.6-20.5-1.8-29.4-3.6Z"/><g><path class="cls-1" d="m202.2,220.7c-.6,4-1.3,7.5-2.4,10-3.2,7.2-12.4,12.2-21.1,12.2-12.2,0-18.3-8.3-18.3-19.3,0-6.8,2.1-13.1,5-17.6l2.2,1.1c-1.8,4.1-3,8-3,11.7,0,10.3,7.1,15.2,15.3,15.2,9.7,0,18.7-7.5,18.7-13.3,0-4-2.5-10.6-6.5-16.6,1.2-2.2,2.4-4.1,4.1-6.7h.3c2.3,4.5,3.9,8.4,5.2,12,.9,2.1,1.8,3.1,4,3.1,1.9,0,3.7-.9,4.8-1.8,1.2-.8,2.8-2.4,3.6-5l1.6-4.6,4.3-1.9.3.3c-1.4,4.3-1.9,7.2-1.9,9.2,0,2.6,1.9,3.8,4.3,3.8,4.8,0,6.8-4.5,7.7-8.4l1.1-4.4,4.6-2.7.3.3c-.8,2.9-1.5,6.3-1.5,8.6,0,5,60.3,4.7,66.2,4.7h1.4v8h-1.6c-7.8,0-67.4-.6-68.9-4.1h-.4c-3.5,4.1-7.3,5.9-11,5.9-2.7,0-5.7-.8-6.7-5.2h-.4c-2.1,3.2-5.3,5.2-10,5.2h-1.3v.3Z"/><path class="cls-1" d="m303.8,210.9c4.8,0,9.9-1.9,10.8-5.5l1.8-6.8,4.3-3.1.4.4c-.9,3.2-1.4,5.9-1.4,7.3,0,2.2.6,4,2.1,5.2,2,1.6,86.6,2.5,90,2.5h1.1v8h-1.4c-6.2,0-93-1.7-95.1-6.4h-.3c-2.1,4.2-7.1,6.4-12.5,6.4h-1.2c-3.5,0-4.4-2.5-4.4-4.2,0-1.5,1-3.8,4.4-3.8h1.4Zm7.1,33.1c-2.6-2.4-30.7-5-33.3-7.1,1.6-2.3,29.3-3.8,30.9-5.4,2.6,2,4.7,4.1,7.2,6.7-1.8,2.5-3,4.2-4.8,5.8Zm12.1-.8c-2.6-2.4-4.8-4.5-7.3-6.5,1.6-2.3,3.4-4.3,5-6,2.6,2,13.5,3.6,16,6.2-1.8,2.5-11.9,4.7-13.7,6.3Z"/><path class="cls-1" d="m414,210.9c5.3,0,9.6-.2,12.4-1.2,2.2-.8,3.6-1.7,3.6-2.8,0-3-3-9.1-6.3-15.5,1.5-2.7,3.1-5.1,4.7-7.1h.3c2.9,5.1,6.3,12.9,6.3,19.2,0,4.7-1.9,8.4-4.4,11.7-2.8,2.8-7.3,3.8-16.9,3.8h-.8c-3.5,0-4.4-2.5-4.4-4.2,0-1.5,1-3.8,4.4-3.8h1.1v-.1Zm8.7-46.7c2.6,1.9,5.1,4.1,7.5,6.7-1.4,2.3-3.1,4.3-5.2,6.2-2.4-2.3-4.9-4.3-7.4-6.5,1.8-2.3,3.5-4.5,5.1-6.4Z"/><path class="cls-1" d="m461.4,212.3c-7.3,0-13.7-3.5-13.7-11.8,0-4.1,1.6-7.7,4-10.8,2.9-3.1,6-5.2,9-5.2,3.6,0,7,2.6,9.5,7.1,2.4,4.3,4,10.3,4,17.3,0,5.8-1.4,11.4-4.8,16.5-5.6,8.5-10.9,11.9-16.1,11.9-5.8,0-11.7-1.9-18-6.2l.9-2c3.1,1.6,6.1,2.1,9.2,2.1,6.3,0,12.7-3.2,18.5-9.6,2.8-3.1,5.5-6.8,5.9-10.5-2.7.9-5.5,1.2-8.4,1.2Zm-2.7-19.9c-3,0-7,3.3-7,5.6,0,3.9,5.5,6.7,10.7,6.7,2.4,0,4.8-.3,7.1-.8-1.8-6.4-5.4-11.5-10.8-11.5Z"/><path class="cls-1" d="m487.8,201.9c.2,5.4,2.4,9.7,10.3,9.7,4.9,0,9-1.5,13.6-4.1.8-.4,1.3-1,1.3-1.5,0-3.4-2.2-7.9-5.9-11.9-3.6-3.8-8.4-7.2-12.8-9.5-1.5-.8-2-1.6-2-2.3,0-1.6,1.8-4.8,3.2-7.2l.5-.1c5.1,3.1,10.8,7.8,15,13,3.8,4.8,6.2,9.6,6.2,14.9,0,3.9-1,7.6-2.6,11-5.6,3.3-11.6,5.8-17.5,5.8-7.2,0-12.1-4-12.1-13.3,0-1,0-2.6.3-4.6h2.5v.1Z"/><path class="cls-1" d="m529.3,220c.6-4,.7-8.4.7-12.6v-6.2c0-11.5-1.3-28.2-2.3-39.1,1.8-2.3,4.2-4.9,6.2-6.7l.6.2c1.3,13.7,1.6,29.6,1.6,44.2,0,3.8-.1,7.6-.4,10.4-.2,3.5-1.9,6.1-5.5,10.1l-.9-.3Z"/></g></svg>